<svg xmlns="http://www.w3.org/2000/svg" fill-rule="evenodd" stroke-linejoin="round" stroke-miterlimit="1.414" clip-rule="evenodd" viewBox="0 0 404 92">
  <path fill="#fff" d="M49.11 28.828l19.968-11.549L49.093 5.76l-19.97 11.55L49.11 28.827zM19.995 45.96L.009 34.44l.016 23.068 19.986 11.52-.016-23.068zm29.029 16.732l.017 23.068 19.97-11.548-.018-23.068-19.969 11.548z"/>
  <path fill="#fff" d="M69.078 17.28L49.11 28.827l.017 23.068 19.97-11.548-.018-23.069zM.009 34.44l19.986 11.52 19.969-11.55-19.986-11.52L.008 34.44zM49.04 85.76l-.016-23.068-19.986-11.52.017 23.069L49.04 85.76z"/>
  <g fill="#fff" fill-opacity=".702">
    <path d="M29.125 17.308l19.986 11.52.017 23.067-7.124-4.106-.009-14.516-12.862-7.414-.008-8.551z"/>
    <path d="M20.01 69.029l-.017-23.068L39.964 34.41l.005 8.017-13.032 7.538.012 15.05-6.94 4.015z"/>
    <path d="M68.995 51.141L49.023 62.694l-19.986-11.52 7.406-4.284 12.754 7.351 12.566-7.268 7.232 4.168z"/>
  </g>
  <path fill="#fff" fill-rule="nonzero" d="M90.05 63.244v5.657h37.943v-6.527H99.274l27.501-33.419v-5.048H91.79v6.528h25.412l-27.153 32.81zm76.672-21.147h-25.848a15.39 15.39 0 0 1 1.13-4.918 13.114 13.114 0 0 1 2.611-4.046c1.103-1.16 2.424-2.075 3.96-2.742 1.538-.667 3.265-1 5.18-1 1.856 0 3.553.333 5.09 1 1.538.667 2.873 1.567 4.003 2.698s2.032 2.48 2.698 4.047a15.19 15.19 0 0 1 1.176 4.96zm7.134 12.532h-7.31c-.638 2.959-1.958 5.163-3.96 6.614-2.001 1.45-4.567 2.175-7.701 2.175-2.436 0-4.555-.406-6.352-1.218-1.799-.812-3.279-1.9-4.44-3.264a12.7 12.7 0 0 1-2.522-4.699c-.524-1.77-.757-3.64-.697-5.613h33.679c.117-2.727-.13-5.6-.739-8.616a24.95 24.95 0 0 0-3.307-8.355c-1.597-2.553-3.713-4.656-6.353-6.31-2.64-1.653-5.963-2.48-9.965-2.48-3.075 0-5.903.58-8.486 1.74a19.94 19.94 0 0 0-6.7 4.874c-1.886 2.089-3.351 4.555-4.395 7.398-1.045 2.843-1.567 5.976-1.567 9.399.116 3.423.624 6.585 1.523 9.486.9 2.901 2.248 5.396 4.047 7.484 1.8 2.089 4.018 3.714 6.658 4.874 2.64 1.16 5.758 1.74 9.354 1.74 5.106 0 9.343-1.276 12.707-3.829 3.365-2.552 5.54-6.353 6.526-11.4zm8.356-30.722v44.994h7.397V43.49c0-2.03.277-3.902.826-5.613.551-1.712 1.38-3.206 2.48-4.482 1.104-1.277 2.481-2.263 4.136-2.96 1.652-.696 3.61-1.044 5.874-1.044 2.843 0 5.077.813 6.701 2.437 1.625 1.625 2.436 3.83 2.436 6.614v30.46h7.4v-29.59c0-2.436-.248-4.655-.742-6.657-.491-2.002-1.347-3.728-2.568-5.178-1.218-1.45-2.812-2.582-4.786-3.394-1.972-.813-4.438-1.219-7.397-1.219-6.671 0-11.545 2.727-14.62 8.18h-.174v-7.136h-6.963zm84.417 36.9c-.869 1.22-1.827 2.09-3.654 3.569-3.134 2.35-7.484 3.568-12.096 3.568-11.49 0-19.062-8.616-19.062-21.67 0-13.141 7.397-21.41 19.062-21.41 3.653 0 7.047.61 9.833 2.35 2.263 1.393 3.743 2.786 5.048 4.613l1.565-1.48c-1.305-1.653-3.045-3.132-5.046-4.438-3.222-2.002-7.05-2.872-11.315-2.872-12.88 0-21.148 9.138-21.148 23.237 0 13.924 8.617 23.497 21.063 23.497 5.22 0 10.095-1.566 13.836-4.525 1.305-1.044 2.35-2.002 3.306-3.046l-1.392-1.393zm40.991 8.094h2.175a76.01 76.01 0 0 1-.262-6.614v-23.41c0-10.966-4.958-15.927-15.75-15.927-3.48 0-6.44.696-9.138 2.089-2.09 1.044-4.003 2.524-5.83 4.351l1.218 1.567c1.392-1.567 3.132-3.046 5.308-4.178 2.436-1.218 5.046-2.001 8.268-2.001 9.66 0 13.923 4.264 13.923 14.36v4.264c-1.827-.174-4.003-.261-7.31-.261-16.708 0-24.804 4.7-24.804 14.447 0 7.658 5.57 12.183 15.144 12.183 7.833 0 14.013-4.003 17.32-11.313h.174c-.262 2.088-.437 4.438-.437 6.44v4.003zm-.088-12.27c-3.394 7.484-9.05 11.313-16.97 11.313-8.44 0-13.227-3.742-13.227-10.356 0-8.703 7.222-12.707 22.887-12.707 3.22 0 5.396.088 7.31.261V56.63zm14.447 4.351a20.241 20.241 0 0 0 4.961 5.221c3.22 2.437 7.223 3.568 12.359 3.568 10.182 0 16.274-4.699 16.274-12.532 0-6.875-4.178-10.182-16.274-12.619-9.227-1.827-12.793-4.438-12.793-9.573 0-6.527 4.787-10.443 12.793-10.443 2.96 0 5.83.609 8.355 1.827 2.001 1.045 3.654 2.35 4.7 3.656l1.392-1.48c-1.393-1.567-3.569-3.133-5.745-4.09-2.61-1.132-5.483-1.74-8.702-1.74-8.877 0-14.797 4.873-14.797 12.27 0 6.18 4.093 9.486 14.447 11.575 11.228 2.263 14.622 4.786 14.622 10.791 0 6.876-5.049 10.53-14.185 10.53-4.7 0-8.617-1.043-11.403-3.306a20.92 20.92 0 0 1-4.524-5.048l-1.48 1.393zm81.372 7.919c-.174-1.914-.262-3.655-.262-6.527V39.486c0-10.618-5.917-16.71-16.1-16.71-8.18 0-14.534 4.264-16.97 10.879V9.287c0-3.046.088-4.7.26-6.527h-2.523c.175 1.827.262 3.48.262 6.527v53.087c0 2.959-.087 4.7-.262 6.527h2.523c-.172-1.827-.26-3.568-.26-6.527V40.182c0-9.138 6.789-15.491 16.796-15.578 9.314 0 14.273 5.396 14.273 15.404v22.366c0 2.872-.088 4.613-.26 6.527h2.523z"/>
</svg>
